<svg width="88" height="88" viewBox="0 0 88 88" fill="none" xmlns="http://www.w3.org/2000/svg">
<g clip-path="url(#clip0_424_149)">
<mask id="mask0_424_149" style="mask-type:luminance" maskUnits="userSpaceOnUse" x="1" y="30" width="87" height="58">
<path d="M1.06802 88L87.4287 88L87.4287 30.148L1.06802 30.148L1.06802 88Z" fill="white"/>
</mask>
<g mask="url(#mask0_424_149)">
<mask id="mask1_424_149" style="mask-type:luminance" maskUnits="userSpaceOnUse" x="1" y="0" width="86" height="99">
<path d="M86.9229 98.0332L1.61803 98.0332L1.61804 0.377716L86.9229 0.377724L86.9229 98.0332Z" fill="white"/>
</mask>
<g mask="url(#mask1_424_149)">
<path d="M55.0634 97.7852L65.9187 97.7852L65.9187 92.6945L55.0634 92.6945L55.0634 97.7852ZM51.4204 86.2572L86.7715 86.2572L86.7715 81.1655L51.4204 81.1655L51.4204 86.2572ZM3.23 74.7293L20.2807 74.7293L20.2807 69.6354L3.23 69.6354L3.23 74.7293ZM64.1615 63.1982L86.7715 63.1982L86.7715 58.1075L64.1615 58.1075L64.1615 63.1982ZM37.7503 51.6692L86.7715 51.6692L86.7715 46.5816L37.7503 46.5816L37.7503 51.6692ZM6.14389 46.5816L-42.8744 46.5816L-42.8744 51.6692L6.14389 51.6692L6.14389 46.5816ZM-29.9936 17.0854L-29.9936 11.9946L-62.102 11.9946L-62.102 17.0854L-29.9936 17.0854ZM50.3967 11.9946L-25.7267 11.9946L-25.7267 17.0854L50.3967 17.0854L50.3967 11.9946ZM86.7715 0.465439L55.3581 0.465436L55.3581 5.5563L86.7715 5.5563L86.7715 0.465439Z" fill="#C3E9E9"/>
</g>
<mask id="mask2_424_149" style="mask-type:luminance" maskUnits="userSpaceOnUse" x="1" y="-12" width="86" height="99">
<path d="M86.9229 86.3564L1.61803 86.3564L1.61804 -11.2989L86.9229 -11.2989L86.9229 86.3564Z" fill="white"/>
</mask>
<g mask="url(#mask2_424_149)">
<path d="M-11.5995 86.2568L23.7499 86.2568L23.7499 81.1651L-11.5995 81.1651L-11.5995 86.2568ZM24.5476 74.7289L86.7715 74.7289L86.7715 69.6351L24.5476 69.6351L24.5476 74.7289ZM34.1802 35.0512L-8.58457 35.0512L-8.58457 40.1409L34.1802 40.1409L34.1802 35.0512ZM54.6654 17.085L86.7715 17.085L86.7715 11.9941L54.6654 11.9941L54.6654 17.085ZM-5.43901 5.55585L-5.43901 0.464988L-14.6122 0.464987L-14.6122 5.55585L-5.43901 5.55585ZM67.0771 -11.0624L-5.80637 -11.0624L-5.80637 -5.97215L67.0771 -5.97215L67.0771 -11.0624Z" fill="#8CDCED"/>
</g>
<mask id="mask3_424_149" style="mask-type:luminance" maskUnits="userSpaceOnUse" x="1" y="-37" width="109" height="151">
<path d="M109.408 113.689L1.61863 113.689L1.61864 -36.2433L109.408 -36.2433L109.408 113.689Z" fill="white"/>
</mask>
<g mask="url(#mask3_424_149)">
<path d="M109.408 104.221L105.141 104.221L105.141 109.313L109.408 109.313L109.408 104.221ZM109.408 92.6942L105.141 92.6942L105.141 97.7849L109.408 97.7849L109.408 92.6942ZM28.0185 86.2569L47.1532 86.2569L47.1532 81.1652L28.0185 81.1652L28.0185 86.2569ZM109.408 81.1652L105.141 81.1652L105.141 86.2569L109.408 86.2569L109.408 81.1652ZM109.408 69.6351L105.141 69.6351L105.141 74.729L109.408 74.729L109.408 69.6351ZM12.9608 63.1979L59.896 63.1979L59.896 58.1072L12.9608 58.1072L12.9608 63.1979ZM109.408 58.1072L105.141 58.1072L105.141 63.1979L109.408 63.1979L109.408 58.1072ZM109.408 46.5813L105.141 46.5813L105.141 51.6689L109.408 51.6689L109.408 46.5813ZM38.4462 40.141L86.7713 40.141L86.7713 35.0513L38.4462 35.0513L38.4462 40.141ZM109.408 35.0513L105.141 35.0513L105.141 40.141L109.408 40.141L109.408 35.0513ZM109.408 23.5257L105.141 23.5257L105.141 28.6132L109.408 28.6132L109.408 23.5257ZM109.408 11.9943L105.141 11.9943L105.141 17.0852L109.408 17.0852L109.408 11.9943ZM51.0917 5.55601L51.0917 0.465151L-1.17373 0.465147L-1.17373 5.55601L51.0917 5.55601ZM109.408 0.465157L105.141 0.465156L105.141 5.55601L109.408 5.55602L109.408 0.465157ZM86.7713 -11.0628L71.3457 -11.0628L71.3457 -5.972L86.7713 -5.97199L86.7713 -11.0628ZM109.408 -11.0628L105.141 -11.0628L105.141 -5.97199L109.408 -5.97199L109.408 -11.0628ZM109.408 -22.5903L105.141 -22.5903L105.141 -17.5L109.408 -17.5L109.408 -22.5903ZM97.7543 -36.1303L95.6686 -36.1303L95.6686 113.641L97.7543 113.641L97.7543 -36.1303Z" fill="#A1B1B1"/>
</g>
<mask id="mask4_424_149" style="mask-type:luminance" maskUnits="userSpaceOnUse" x="1" y="-37" width="92" height="149">
<path d="M92.0967 111.832L1.67475 111.832L1.67476 -36.5437L92.0967 -36.5437L92.0967 111.832Z" fill="white"/>
</mask>
<g mask="url(#mask4_424_149)">
<path d="M70.2415 97.7856L91.9512 97.7856L91.9512 92.6949L70.2415 92.6949L70.2415 97.7856ZM-0.980443 74.7297L-0.980442 69.6359L-27.5291 69.6359L-27.5291 74.7297L-0.980443 74.7297ZM33.5416 46.582L10.4667 46.582L10.4667 51.6696L33.5416 51.6696L33.5416 46.582ZM91.9512 23.5259L68.1567 23.5259L68.1567 28.6139L91.9512 28.6139L91.9512 23.5259ZM76.7272 -17.4993L91.9512 -17.4993L91.9512 -22.5896L76.7272 -22.5896L76.7272 -17.4993ZM78.4444 101.885C78.2654 101.885 78.0881 101.964 77.9535 102.126L71.5686 109.741C71.2983 110.063 71.2983 110.591 71.5686 110.912C71.8397 111.237 72.2803 111.237 72.5532 110.912L78.9355 103.299C79.2066 102.975 79.2066 102.45 78.9355 102.126C78.799 101.964 78.6217 101.885 78.4444 101.885ZM83.7465 101.674C83.6118 101.51 83.4336 101.429 83.2546 101.429C83.0791 101.429 82.9 101.51 82.7636 101.674C82.4907 101.996 82.4907 102.521 82.7627 102.845L85.8444 106.52L82.7636 110.195C82.4933 110.52 82.4933 111.044 82.7636 111.367C83.0348 111.691 83.4754 111.691 83.7465 111.367L87.3209 107.107C87.5912 106.783 87.5912 106.26 87.3209 105.934L83.7465 101.674ZM66.568 111.367C66.8392 111.691 67.2798 111.691 67.5501 111.367C67.8204 111.044 67.8204 110.517 67.5501 110.193L67.5501 110.198L64.4693 106.523L67.5501 102.845C67.8204 102.523 67.8204 101.996 67.5501 101.671C67.4136 101.508 67.2355 101.429 67.0591 101.429C66.8809 101.429 66.7028 101.508 66.568 101.671L62.9945 105.934C62.8624 106.091 62.7912 106.298 62.7912 106.52C62.7912 106.744 62.8624 106.951 62.9945 107.109L66.568 111.367ZM66.5654 -26.6056C66.8392 -26.2793 67.2798 -26.2793 67.5501 -26.6056C67.8204 -26.9267 67.8204 -27.4547 67.5501 -27.777L64.4693 -31.4518L67.5501 -35.1261C67.823 -35.449 67.823 -35.9753 67.5501 -36.2999C67.4137 -36.4616 67.2381 -36.5433 67.0591 -36.5433C66.8809 -36.5433 66.7028 -36.4616 66.5654 -36.2999L62.9946 -32.0376C62.8624 -31.881 62.7912 -31.6713 62.7912 -31.4518C62.7912 -31.2307 62.8624 -31.0181 62.9946 -30.865L66.5654 -26.6056ZM82.7628 -26.6056C83.0356 -26.2798 83.4754 -26.2798 83.7465 -26.6056L83.7465 -26.6027L87.3209 -30.865C87.5912 -31.1884 87.5912 -31.7141 87.3209 -32.0376L83.7465 -36.2999C83.6118 -36.4604 83.4328 -36.5404 83.2546 -36.5404C83.0765 -36.5404 82.9001 -36.4615 82.7628 -36.301C82.4907 -35.9753 82.4907 -35.449 82.7628 -35.1261L85.8461 -31.4518L82.7628 -27.777C82.4907 -27.4536 82.4907 -26.9267 82.7628 -26.6056ZM72.5532 -27.0587L78.9355 -34.6724C79.2066 -34.9947 79.2066 -35.5216 78.9355 -35.8456C78.799 -36.0073 78.6218 -36.0884 78.4444 -36.0884C78.2654 -36.0884 78.0882 -36.0073 77.9517 -35.8456L71.5686 -28.2307C71.2983 -27.9055 71.2983 -27.3833 71.5686 -27.0587C71.8388 -26.7341 72.2812 -26.7341 72.5532 -27.0587Z" fill="#A5CDDB"/>
</g>
<mask id="mask5_424_149" style="mask-type:luminance" maskUnits="userSpaceOnUse" x="1" y="55" width="12" height="10">
<path d="M1.65977 64.6631L12.0049 64.6631L12.0049 55.7069L1.65977 55.7069L1.65977 64.6631Z" fill="white"/>
</mask>
<g mask="url(#mask5_424_149)">
<mask id="mask6_424_149" style="mask-type:luminance" maskUnits="userSpaceOnUse" x="-63" y="-12" width="74" height="99">
<path d="M11 86.4902L-62.4571 86.4902L-62.4571 -11.1653L11 -11.1653L11 86.4902Z" fill="white"/>
</mask>
<g mask="url(#mask6_424_149)">
<path d="M-16.4347 86.2422L-7.08718 86.2422L-7.08718 81.1515L-16.4347 81.1515L-16.4347 86.2422ZM-19.5717 74.7142L10.8691 74.7142L10.8691 69.6225L-19.5717 69.6225L-19.5717 74.7142ZM-61.0691 63.1863L-46.3867 63.1863L-46.3867 58.0925L-61.0691 58.0925L-61.0691 63.1863ZM-8.60034 51.6552L10.8691 51.6552L10.8691 46.5645L-8.60034 46.5645L-8.60034 51.6552ZM-31.3437 40.1262L10.8691 40.1262L10.8691 35.0386L-31.3437 35.0386L-31.3437 40.1262ZM-58.5601 35.0386L-100.771 35.0386L-100.771 40.1262L-58.5601 40.1262L-58.5601 35.0386ZM-89.6783 5.5424L-89.6783 0.451552L-117.328 0.45155L-117.328 5.5424L-89.6783 5.5424ZM-20.4535 0.451558L-86.0042 0.451553L-86.0042 5.5424L-20.4535 5.54241L-20.4535 0.451558ZM10.8691 -11.0776L-16.1815 -11.0776L-16.1815 -5.98673L10.8691 -5.98672L10.8691 -11.0776Z" fill="#C3E9E9"/>
</g>
<mask id="mask7_424_149" style="mask-type:luminance" maskUnits="userSpaceOnUse" x="-63" y="-23" width="74" height="98">
<path d="M11 74.8135L-62.4571 74.8135L-62.4571 -22.8419L11 -22.8419L11 74.8135Z" fill="white"/>
</mask>
<g mask="url(#mask7_424_149)">
<path d="M-73.8393 74.7139L-43.3996 74.7139L-43.3996 69.6221L-73.8393 69.6221L-73.8393 74.7139ZM-42.7125 63.1859L10.8691 63.1859L10.8691 58.0921L-42.7125 58.0921L-42.7125 63.1859ZM-34.4177 23.5083L-71.2428 23.5083L-71.2428 28.598L-34.4177 28.598L-34.4177 23.5083ZM-16.7776 5.54198L10.8691 5.54198L10.8691 0.451134L-16.7776 0.451131L-16.7776 5.54198ZM-68.5339 -5.98716L-68.5339 -11.0774L-76.4335 -11.0774L-76.4335 -5.98716L-68.5339 -5.98716ZM-6.08957 -22.6054L-68.8507 -22.6054L-68.8507 -17.5152L-6.08957 -17.5152L-6.08957 -22.6054Z" fill="#8CDCED"/>
</g>
<mask id="mask8_424_149" style="mask-type:luminance" maskUnits="userSpaceOnUse" x="-63" y="-48" width="94" height="151">
<path d="M30.3613 102.146L-62.4574 102.146L-62.4574 -47.7863L30.3613 -47.7863L30.3613 102.146Z" fill="white"/>
</mask>
<g mask="url(#mask8_424_149)">
<path d="M30.3613 92.6781L26.6872 92.6781L26.6872 97.7699L30.3613 97.7699L30.3613 92.6781ZM30.3613 81.1512L26.6872 81.1512L26.6872 86.2419L30.3613 86.2419L30.3613 81.1512ZM-39.7243 74.7139L-23.247 74.7139L-23.247 69.6222L-39.7243 69.6222L-39.7243 74.7139ZM30.3613 69.6222L26.6872 69.6222L26.6872 74.7139L30.3613 74.7139L30.3613 69.6222ZM30.3613 58.0922L26.6872 58.0922L26.6872 63.186L30.3613 63.186L30.3613 58.0922ZM-52.6909 51.6549L-12.2739 51.6549L-12.2739 46.5642L-52.6909 46.5642L-52.6909 51.6549ZM30.3613 46.5642L26.6872 46.5642L26.6872 51.6549L30.3613 51.6549L30.3613 46.5642ZM30.3613 35.0383L26.6872 35.0383L26.6872 40.1259L30.3613 40.1259L30.3613 35.0383ZM-30.7447 28.5981L10.8686 28.5981L10.8686 23.5084L-30.7447 23.5084L-30.7447 28.5981ZM30.3613 23.5084L26.6872 23.5084L26.6872 28.5981L30.3613 28.5981L30.3613 23.5084ZM30.3613 11.9827L26.6872 11.9827L26.6872 17.0701L30.3613 17.0701L30.3613 11.9827ZM30.3613 0.451263L26.6872 0.451263L26.6872 5.54212L30.3613 5.54212L30.3613 0.451263ZM-19.8556 -5.98703L-19.8556 -11.0779L-64.862 -11.0779L-64.862 -5.98703L-19.8556 -5.98703ZM30.3613 -11.0779L26.6872 -11.0779L26.6872 -5.98702L30.3613 -5.98702L30.3613 -11.0779ZM10.8686 -22.6053L-2.41484 -22.6053L-2.41484 -17.515L10.8686 -17.515L10.8686 -22.6053ZM30.3613 -22.6053L26.6872 -22.6053L26.6872 -17.515L30.3613 -17.515L30.3613 -22.6053ZM30.3613 -34.1333L26.6872 -34.1333L26.6872 -29.043L30.3613 -29.043L30.3613 -34.1333ZM20.3262 -47.6733L18.5303 -47.6733L18.5303 102.098L20.3262 102.098L20.3262 -47.6733Z" fill="#A1B1B1"/>
</g>
</g>
</g>
<mask id="mask9_424_149" style="mask-type:luminance" maskUnits="userSpaceOnUse" x="-2" y="0" width="89" height="31">
<path d="M-1.19522 30.8574L86.8047 30.8574L86.8047 0.00028038L-1.19522 0.000272687L-1.19522 30.8574Z" fill="white"/>
</mask>
<g mask="url(#mask9_424_149)">
<mask id="mask10_424_149" style="mask-type:luminance" maskUnits="userSpaceOnUse" x="1" y="13" width="86" height="98">
<path d="M86.4658 110.87L1.3936 110.87L1.39361 13.4067L86.4658 13.4067L86.4658 110.87Z" fill="white"/>
</mask>
<g mask="url(#mask10_424_149)">
<path d="M54.6929 110.623L65.5186 110.623L65.5186 105.542L54.6929 105.542L54.6929 110.623ZM51.0598 99.1177L86.3145 99.1177L86.3145 94.036L51.0598 94.036L51.0598 99.1177ZM3.00102 87.6125L20.0052 87.6125L20.0052 82.5287L3.00102 82.5287L3.00102 87.6125ZM63.7661 76.1041L86.3145 76.1041L86.3145 71.0234L63.7661 71.0234L63.7661 76.1041ZM37.427 64.5978L86.3145 64.5978L86.3145 59.5202L37.427 59.5202L37.427 64.5978ZM5.90696 59.5202L-42.978 59.5202L-42.978 64.5978L5.90696 64.5978L5.90696 59.5202ZM-30.1323 30.0817L-30.1323 25.0011L-62.1533 25.0011L-62.1533 30.0817L-30.1323 30.0817ZM50.0388 25.0011L-25.8767 25.0011L-25.8767 30.0817L50.0388 30.0817L50.0388 25.0011ZM86.3145 13.4948L54.9867 13.4948L54.9867 18.5754L86.3145 18.5754L86.3145 13.4948Z" fill="#C3E9E9"/>
</g>
<mask id="mask11_424_149" style="mask-type:luminance" maskUnits="userSpaceOnUse" x="1" y="1" width="86" height="99">
<path d="M86.4658 99.2168L1.3936 99.2168L1.39361 1.75352L86.4658 1.75353L86.4658 99.2168Z" fill="white"/>
</mask>
<g mask="url(#mask11_424_149)">
<path d="M-11.7882 99.1172L23.4647 99.1172L23.4647 94.0355L-11.7882 94.0355L-11.7882 99.1172ZM24.2602 87.6119L86.3145 87.6119L86.3145 82.5281L24.2602 82.5281L24.2602 87.6119ZM33.8667 48.0123L-8.78173 48.0123L-8.78173 53.092L33.8666 53.092L33.8667 48.0123ZM54.296 30.0813L86.3145 30.0813L86.3145 25.0007L54.296 25.0007L54.296 30.0813ZM-5.64414 18.575L-5.64413 13.4945L-14.7929 13.4945L-14.7929 18.575L-5.64414 18.575ZM66.6738 1.98932L-6.01092 1.98931L-6.01092 7.06988L66.6738 7.06988L66.6738 1.98932Z" fill="#8CDCED"/>
</g>
<mask id="mask12_424_149" style="mask-type:luminance" maskUnits="userSpaceOnUse" x="1" y="-24" width="108" height="151">
<path d="M108.889 126.496L1.39323 126.496L1.39324 -23.1417L108.889 -23.1417L108.889 126.496Z" fill="white"/>
</mask>
<g mask="url(#mask12_424_149)">
<path d="M108.889 117.046L104.633 117.046L104.633 122.128L108.889 122.128L108.889 117.046ZM108.889 105.542L104.633 105.542L104.633 110.623L108.889 110.623L108.889 105.542ZM27.721 99.1174L46.8035 99.1174L46.8035 94.0357L27.721 94.0357L27.721 99.1174ZM108.889 94.0357L104.633 94.0357L104.633 99.1174L108.889 99.1174L108.889 94.0357ZM108.889 82.5284L104.633 82.5284L104.633 87.6122L108.889 87.6122L108.889 82.5284ZM12.7041 76.1038L59.5115 76.1038L59.5115 71.0231L12.7041 71.0231L12.7041 76.1038ZM108.889 71.0231L104.633 71.0231L104.633 76.1038L108.889 76.1038L108.889 71.0231ZM108.889 59.5199L104.633 59.5199L104.633 64.5975L108.889 64.5975L108.889 59.5199ZM38.1202 53.0922L86.3135 53.0922L86.3135 48.0125L38.1202 48.0125L38.1202 53.0922ZM108.889 48.0125L104.633 48.0125L104.633 53.0922L108.889 53.0922L108.889 48.0125ZM108.889 36.5093L104.633 36.5093L104.633 41.5869L108.889 41.5869L108.889 36.5093ZM108.889 25.001L104.633 25.001L104.633 30.0816L108.889 30.0816L108.889 25.001ZM50.7312 18.5753L50.7312 13.4947L-1.39177 13.4947L-1.39178 18.5753L50.7312 18.5753ZM108.889 13.4947L104.633 13.4947L104.633 18.5753L108.889 18.5753L108.889 13.4947ZM86.3135 1.98958L70.93 1.98957L70.93 7.07013L86.3135 7.07014L86.3135 1.98958ZM108.889 1.98958L104.633 1.98958L104.633 7.07014L108.889 7.07014L108.889 1.98958ZM108.889 -9.51614L104.633 -9.51614L104.633 -4.435L108.889 -4.435L108.889 -9.51614ZM97.2666 -23.0293L95.1865 -23.0293L95.1865 126.447L97.2665 126.447L97.2666 -23.0293Z" fill="#A1B1B1"/>
</g>
<mask id="mask13_424_149" style="mask-type:luminance" maskUnits="userSpaceOnUse" x="1" y="-24" width="91" height="149">
<path d="M91.5684 124.643L1.39324 124.643L1.39325 -23.4413L91.5684 -23.4413L91.5684 124.643Z" fill="white"/>
</mask>
<g mask="url(#mask13_424_149)">
<path d="M69.7734 110.623L91.4238 110.623L91.4238 105.543L69.7734 105.543L69.7734 110.623ZM-1.25418 87.6128L-1.25418 82.529L-27.7302 82.529L-27.7302 87.6128L-1.25418 87.6128ZM33.1736 59.5205L10.1618 59.5205L10.1618 64.5981L33.1736 64.5981L33.1736 59.5205ZM91.4238 36.5099L67.6942 36.5099L67.6942 41.5875L91.4238 41.5875L91.4238 36.5099ZM76.2414 -4.43442L91.4238 -4.43442L91.4238 -9.51556L76.2414 -9.51557L76.2414 -4.43442ZM77.9539 114.715C77.7754 114.715 77.5986 114.794 77.4643 114.955L71.0968 122.555C70.8273 122.877 70.8273 123.403 71.0968 123.724C71.3672 124.049 71.8066 124.049 72.0787 123.724L78.4436 116.126C78.714 115.802 78.714 115.279 78.4436 114.955C78.3075 114.794 78.1307 114.715 77.9539 114.715ZM83.2415 114.504C83.1072 114.34 82.9295 114.26 82.751 114.26C82.5759 114.26 82.3974 114.34 82.2613 114.504C81.9892 114.826 81.9892 115.349 82.2605 115.673L85.3337 119.34L82.2613 123.008C81.9918 123.333 81.9918 123.855 82.2613 124.178C82.5317 124.502 82.9711 124.502 83.2415 124.178L86.8062 119.926C87.0757 119.603 87.0757 119.081 86.8062 118.756L83.2415 114.504ZM66.11 124.178C66.3803 124.502 66.8198 124.502 67.0893 124.178C67.3588 123.855 67.3588 123.33 67.0893 123.006L67.0893 123.011L64.0169 119.344L67.0893 115.673C67.3588 115.351 67.3588 114.826 67.0893 114.501C66.9532 114.338 66.7755 114.26 66.5996 114.26C66.422 114.26 66.2443 114.338 66.11 114.501L62.5462 118.756C62.4144 118.912 62.3434 119.119 62.3434 119.34C62.3434 119.564 62.4144 119.771 62.5462 119.928L66.11 124.178ZM66.1074 -13.523C66.3804 -13.1973 66.8198 -13.1973 67.0893 -13.523C67.3588 -13.8441 67.3588 -14.3704 67.0893 -14.6921L64.0169 -18.3596L67.0893 -22.027C67.3614 -22.3487 67.3614 -22.8744 67.0893 -23.1984C66.9533 -23.3596 66.7781 -23.4413 66.5996 -23.4413C66.422 -23.4413 66.2443 -23.3596 66.1074 -23.1984L62.5462 -18.9441C62.4145 -18.7881 62.3434 -18.579 62.3434 -18.3596C62.3434 -18.1396 62.4145 -17.927 62.5462 -17.7744L66.1074 -13.523ZM82.2605 -13.523C82.5326 -13.1984 82.9711 -13.1984 83.2415 -13.523L83.2415 -13.5201L86.8062 -17.7744C87.0757 -18.0967 87.0757 -18.6213 86.8062 -18.9441L83.2415 -23.1984C83.1072 -23.3584 82.9287 -23.4384 82.751 -23.4384C82.5733 -23.4384 82.3974 -23.3596 82.2605 -23.1996C81.9892 -22.8744 81.9892 -22.3487 82.2605 -22.027L85.3354 -18.3596L82.2605 -14.6921C81.9892 -14.3693 81.9892 -13.8441 82.2605 -13.523ZM72.0787 -13.975L78.4436 -21.5739C78.714 -21.8956 78.714 -22.4213 78.4436 -22.7453C78.3076 -22.9064 78.1307 -22.987 77.9539 -22.987C77.7754 -22.987 77.5986 -22.9064 77.4626 -22.7453L71.0968 -15.1453C70.8273 -14.8207 70.8273 -14.299 71.0968 -13.975C71.3663 -13.6516 71.8075 -13.6516 72.0787 -13.975Z" fill="#A5CDDB"/>
</g>
</g>
<path d="M46.2124 43.7258C48.7472 43.7258 50.658 43.6753 51.9437 43.5756C53.2281 43.4752 54.0694 43.3058 54.4662 43.068C54.6469 42.9399 54.7739 42.6936 54.8471 42.329C54.9192 41.9643 54.9546 41.2881 54.9546 40.3014L54.9546 37.3993C54.9546 33.1255 54.8826 30.4309 54.7373 29.3161C54.5926 28.2026 54.3307 27.5275 53.951 27.291C53.6616 27.1266 53.2086 26.9344 52.5932 26.7145C51.4541 26.3499 50.8839 25.9022 50.8839 25.3719C50.8839 24.6968 51.3863 24.2041 52.3905 23.8937C53.3954 23.5833 55.0468 23.4281 57.3453 23.4281C59.626 23.4281 61.2646 23.5783 62.2609 23.8789C63.256 24.1807 63.7529 24.6784 63.7529 25.3719C63.7529 25.9022 63.2328 26.3407 62.1925 26.6874C61.151 27.0336 60.5576 27.3083 60.4123 27.5103C60.123 27.8749 59.9191 29.2077 59.8019 31.5087C59.6846 33.8098 59.626 38.0189 59.626 44.1373C59.626 50.199 59.6846 54.3718 59.8019 56.6549C59.9191 58.9375 60.123 60.2617 60.4123 60.6263C60.5576 60.8264 61.151 61.0999 62.1925 61.4467C63.2328 61.7946 63.7529 62.2239 63.7529 62.7351C63.7529 63.4477 63.2462 63.9633 62.2316 64.2823C61.2176 64.6026 59.5888 64.7627 57.3453 64.7627C55.1005 64.7627 53.4626 64.6026 52.4321 64.2823C51.4003 63.9632 50.8839 63.4477 50.8839 62.7351C50.8839 62.2424 51.4357 61.8137 52.5395 61.4491C53.1909 61.2471 53.6616 61.0636 53.9509 60.8997C54.3307 60.6811 54.5926 59.9549 54.7373 58.7219C54.8826 57.4901 54.9546 54.8103 54.9546 50.6831L54.9546 49.779C54.9546 48.9937 54.9192 48.4461 54.8471 48.1357C54.7739 47.8253 54.6469 47.606 54.4662 47.4779C54.0498 47.2593 53.1671 47.1041 51.8191 47.0123C50.4712 46.9218 47.9236 46.8768 44.1758 46.8768C40.9183 46.8768 38.5752 46.9218 37.1455 47.0123C35.7145 47.1041 34.8 47.2593 34.4007 47.4779C34.2023 47.5876 34.0674 47.7933 33.9953 48.0938C33.9221 48.3956 33.8855 48.9573 33.8855 49.779L33.8855 51.533C33.8855 55.2938 33.9581 57.7401 34.1028 58.8722C34.2481 60.0054 34.5106 60.6811 34.8915 60.8997C35.162 61.0636 35.6235 61.2471 36.2761 61.4491C37.3799 61.8137 37.9318 62.2424 37.9318 62.7351C37.9318 63.4477 37.4299 63.9632 36.4251 64.2823C35.4208 64.6026 33.7963 64.7627 31.551 64.7627C29.3062 64.7627 27.6774 64.6026 26.6646 64.2823C25.6506 63.9632 25.1433 63.4477 25.1433 62.7351C25.1433 62.2239 25.6549 61.7946 26.6768 61.4467C27.6994 61.0999 28.283 60.8264 28.4277 60.6263C28.7354 60.2432 28.9527 58.8328 29.0797 56.3938C29.2067 53.956 29.2702 49.8707 29.2702 44.1373C29.2702 38.4395 29.2067 34.3394 29.0797 31.8364C28.9527 29.3346 28.7543 27.8928 28.4839 27.5103C28.3215 27.3083 27.7238 27.0336 26.6915 26.6874C25.6598 26.3407 25.1433 25.9022 25.1433 25.3719C25.1433 24.6783 25.6414 24.1807 26.6378 23.8789C27.6329 23.5783 29.2702 23.4281 31.551 23.4281C33.8317 23.4281 35.4654 23.5783 36.4519 23.8789C37.4385 24.1807 37.9318 24.6784 37.9318 25.3719C37.9318 25.9022 37.3713 26.3499 36.2493 26.7145C35.6144 26.9344 35.162 27.1266 34.8915 27.291C34.5289 27.5275 34.2798 28.2204 34.1443 29.3703C34.0076 30.5214 33.9392 32.6863 33.9392 35.8644L33.9392 41.2597C33.9392 42.0444 34.0076 42.5464 34.1443 42.765C34.2798 42.9849 34.5289 43.1592 34.8915 43.2873C35.289 43.4333 36.4562 43.5423 38.3933 43.615C40.331 43.6889 42.9372 43.7258 46.2124 43.7258Z" fill="#11283B"/>
</g>
<defs>
<clipPath id="clip0_424_149">
<rect x="87.4287" y="88" width="87.4286" height="88" rx="20" transform="rotate(-180 87.4287 88)" fill="white"/>
</clipPath>
</defs>
</svg>
