<svg width="210" height="253" viewBox="0 0 405 489" fill="none" xmlns="http://www.w3.org/2000/svg">
    <rect width="405" height="489" rx="10" fill="white"/>
    <g clip-path="url(#clip0_711_74)">
    <mask id="mask0_711_74" style="mask-type:luminance" maskUnits="userSpaceOnUse" x="160" y="213" width="87" height="58">
    <path d="M160.068 271L246.429 271L246.429 213.148L160.068 213.148L160.068 271Z" fill="white"/>
    </mask>
    <g mask="url(#mask0_711_74)">
    <mask id="mask1_711_74" style="mask-type:luminance" maskUnits="userSpaceOnUse" x="160" y="183" width="86" height="99">
    <path d="M245.923 281.033L160.619 281.033L160.619 183.377L245.923 183.377L245.923 281.033Z" fill="white"/>
    </mask>
    <g mask="url(#mask1_711_74)">
    <path d="M214.063 280.785L224.919 280.785L224.919 275.694L214.063 275.694L214.063 280.785ZM210.42 269.257L245.771 269.257L245.771 264.165L210.42 264.165L210.42 269.257ZM162.23 257.729L179.281 257.729L179.281 252.635L162.23 252.635L162.23 257.729ZM223.161 246.198L245.771 246.198L245.771 241.108L223.161 241.108L223.161 246.198ZM196.75 234.669L245.771 234.669L245.771 229.582L196.75 229.582L196.75 234.669ZM165.144 229.582L116.126 229.582L116.126 234.669L165.144 234.669L165.144 229.582ZM129.006 200.085L129.006 194.995L96.898 194.995L96.898 200.085L129.006 200.085ZM209.397 194.995L133.273 194.995L133.273 200.085L209.397 200.085L209.397 194.995ZM245.771 183.465L214.358 183.465L214.358 188.556L245.771 188.556L245.771 183.465Z" fill="#C2E9EA"/>
    </g>
    <mask id="mask2_711_74" style="mask-type:luminance" maskUnits="userSpaceOnUse" x="160" y="171" width="86" height="99">
    <path d="M245.923 269.356L160.619 269.356L160.619 171.701L245.923 171.701L245.923 269.356Z" fill="white"/>
    </mask>
    <g mask="url(#mask2_711_74)">
    <path d="M147.4 269.257L182.75 269.257L182.75 264.165L147.4 264.165L147.4 269.257ZM183.548 257.729L245.771 257.729L245.771 252.635L183.548 252.635L183.548 257.729ZM193.18 218.051L150.415 218.051L150.415 223.141L193.18 223.141L193.18 218.051ZM213.665 200.085L245.771 200.085L245.771 194.994L213.665 194.994L213.665 200.085ZM153.561 188.556L153.561 183.465L144.388 183.465L144.388 188.556L153.561 188.556ZM226.077 171.938L153.194 171.938L153.194 177.028L226.077 177.028L226.077 171.938Z" fill="#8CDCEC"/>
    </g>
    <mask id="mask3_711_74" style="mask-type:luminance" maskUnits="userSpaceOnUse" x="160" y="146" width="109" height="151">
    <path d="M268.409 296.689L160.619 296.689L160.619 146.757L268.409 146.757L268.409 296.689Z" fill="white"/>
    </mask>
    <g mask="url(#mask3_711_74)">
    <path d="M268.409 287.221L264.142 287.221L264.142 292.313L268.409 292.313L268.409 287.221ZM268.409 275.694L264.142 275.694L264.142 280.785L268.409 280.785L268.409 275.694ZM187.019 269.257L206.154 269.257L206.154 264.165L187.019 264.165L187.019 269.257ZM268.409 264.165L264.142 264.165L264.142 269.257L268.409 269.257L268.409 264.165ZM268.409 252.635L264.142 252.635L264.142 257.729L268.409 257.729L268.409 252.635ZM171.961 246.198L218.896 246.198L218.896 241.107L171.961 241.107L171.961 246.198ZM268.409 241.107L264.142 241.107L264.142 246.198L268.409 246.198L268.409 241.107ZM268.409 229.581L264.142 229.581L264.142 234.669L268.409 234.669L268.409 229.581ZM197.447 223.141L245.772 223.141L245.772 218.051L197.447 218.051L197.447 223.141ZM268.409 218.051L264.142 218.051L264.142 223.141L268.409 223.141L268.409 218.051ZM268.409 206.526L264.142 206.526L264.142 211.613L268.409 211.613L268.409 206.526ZM268.409 194.994L264.142 194.994L264.142 200.085L268.409 200.085L268.409 194.994ZM210.092 188.556L210.092 183.465L157.827 183.465L157.827 188.556L210.092 188.556ZM268.409 183.465L264.142 183.465L264.142 188.556L268.409 188.556L268.409 183.465ZM245.772 171.937L230.346 171.937L230.346 177.028L245.772 177.028L245.772 171.937ZM268.409 171.937L264.142 171.937L264.142 177.028L268.409 177.028L268.409 171.937ZM268.409 160.41L264.142 160.41L264.142 165.5L268.409 165.5L268.409 160.41ZM256.755 146.87L254.669 146.87L254.669 296.641L256.755 296.641L256.755 146.87Z" fill="#899D9D"/>
    </g>
    <mask id="mask4_711_74" style="mask-type:luminance" maskUnits="userSpaceOnUse" x="160" y="146" width="92" height="149">
    <path d="M251.097 294.832L160.675 294.832L160.675 146.456L251.097 146.456L251.097 294.832Z" fill="white"/>
    </mask>
    <g mask="url(#mask4_711_74)">
    <path d="M229.242 280.785L250.952 280.785L250.952 275.694L229.242 275.694L229.242 280.785ZM158.02 257.729L158.02 252.635L131.471 252.635L131.471 257.729L158.02 257.729ZM192.542 229.582L169.467 229.582L169.467 234.669L192.542 234.669L192.542 229.582ZM250.952 206.525L227.157 206.525L227.157 211.613L250.952 211.613L250.952 206.525ZM235.728 165.5L250.952 165.5L250.952 160.41L235.728 160.41L235.728 165.5ZM237.445 284.885C237.266 284.885 237.089 284.964 236.954 285.125L230.569 292.74C230.299 293.063 230.299 293.59 230.569 293.911C230.84 294.237 231.281 294.237 231.554 293.911L237.936 286.299C238.207 285.974 238.207 285.45 237.936 285.125C237.8 284.964 237.622 284.885 237.445 284.885ZM242.747 284.673C242.612 284.51 242.434 284.429 242.255 284.429C242.08 284.429 241.901 284.51 241.764 284.673C241.491 284.996 241.491 285.52 241.763 285.845L244.845 289.519L241.764 293.194C241.494 293.52 241.494 294.043 241.764 294.367C242.035 294.691 242.476 294.691 242.747 294.367L246.321 290.106C246.592 289.783 246.592 289.259 246.321 288.934L242.747 284.673ZM225.569 294.367C225.84 294.691 226.28 294.691 226.551 294.367C226.821 294.043 226.821 293.517 226.551 293.192L226.551 293.197L223.47 289.523L226.551 285.845C226.821 285.522 226.821 284.996 226.551 284.67C226.414 284.507 226.236 284.429 226.06 284.429C225.881 284.429 225.703 284.507 225.569 284.67L221.995 288.934C221.863 289.09 221.792 289.298 221.792 289.519C221.792 289.743 221.863 289.951 221.995 290.108L225.569 294.367ZM225.566 156.394C225.84 156.72 226.28 156.72 226.551 156.394C226.821 156.073 226.821 155.545 226.551 155.223L223.47 151.548L226.551 147.873C226.823 147.551 226.823 147.024 226.551 146.7C226.414 146.538 226.239 146.456 226.06 146.456C225.881 146.456 225.703 146.538 225.566 146.7L221.995 150.962C221.863 151.119 221.792 151.328 221.792 151.548C221.792 151.769 221.863 151.981 221.995 152.135L225.566 156.394ZM241.763 156.394C242.036 156.72 242.476 156.72 242.747 156.394L242.747 156.397L246.321 152.135C246.592 151.811 246.592 151.285 246.321 150.962L242.747 146.7C242.612 146.539 242.433 146.459 242.255 146.459C242.077 146.459 241.901 146.538 241.763 146.699C241.491 147.024 241.491 147.551 241.763 147.873L244.847 151.548L241.763 155.223C241.491 155.546 241.491 156.073 241.763 156.394ZM231.554 155.941L237.936 148.327C238.207 148.005 238.207 147.478 237.936 147.154C237.8 146.992 237.622 146.911 237.445 146.911C237.266 146.911 237.089 146.992 236.952 147.154L230.569 154.769C230.299 155.094 230.299 155.616 230.569 155.941C230.839 156.265 231.282 156.265 231.554 155.941Z" fill="#7AB6C9"/>
    </g>
    <mask id="mask5_711_74" style="mask-type:luminance" maskUnits="userSpaceOnUse" x="160" y="238" width="12" height="10">
    <path d="M160.66 247.663L171.005 247.663L171.005 238.706L160.66 238.706L160.66 247.663Z" fill="white"/>
    </mask>
    <g mask="url(#mask5_711_74)">
    <mask id="mask6_711_74" style="mask-type:luminance" maskUnits="userSpaceOnUse" x="96" y="171" width="74" height="99">
    <path d="M169.999 269.489L96.5419 269.489L96.5419 171.834L169.999 171.834L169.999 269.489Z" fill="white"/>
    </mask>
    <g mask="url(#mask6_711_74)">
    <path d="M142.564 269.242L151.911 269.242L151.911 264.151L142.564 264.151L142.564 269.242ZM139.427 257.714L169.868 257.714L169.868 252.622L139.427 252.622L139.427 257.714ZM97.9294 246.186L112.612 246.186L112.612 241.092L97.9294 241.092L97.9294 246.186ZM150.398 234.655L169.868 234.655L169.868 229.564L150.398 229.564L150.398 234.655ZM127.655 223.126L169.868 223.126L169.868 218.038L127.655 218.038L127.655 223.126ZM100.438 218.038L58.2279 218.038L58.2279 223.126L100.438 223.126L100.438 218.038ZM69.3202 188.542L69.3202 183.451L41.6706 183.451L41.6706 188.542L69.3202 188.542ZM138.545 183.451L72.9944 183.451L72.9944 188.542L138.545 188.542L138.545 183.451ZM169.868 171.922L142.817 171.922L142.817 177.013L169.868 177.013L169.868 171.922Z" fill="#C2E9EA"/>
    </g>
    <mask id="mask7_711_74" style="mask-type:luminance" maskUnits="userSpaceOnUse" x="96" y="160" width="74" height="98">
    <path d="M169.999 257.813L96.5419 257.813L96.5419 160.158L169.999 160.158L169.999 257.813Z" fill="white"/>
    </mask>
    <g mask="url(#mask7_711_74)">
    <path d="M85.1592 257.713L115.599 257.713L115.599 252.622L85.1592 252.622L85.1592 257.713ZM116.286 246.185L169.868 246.185L169.868 241.092L116.286 241.092L116.286 246.185ZM124.581 206.508L87.7558 206.508L87.7558 211.597L124.581 211.597L124.581 206.508ZM142.221 188.541L169.868 188.541L169.868 183.451L142.221 183.451L142.221 188.541ZM90.4647 177.012L90.4647 171.922L82.565 171.922L82.565 177.012L90.4647 177.012ZM152.909 160.394L90.1478 160.394L90.1478 165.484L152.909 165.484L152.909 160.394Z" fill="#8CDCEC"/>
    </g>
    <mask id="mask8_711_74" style="mask-type:luminance" maskUnits="userSpaceOnUse" x="96" y="135" width="94" height="151">
    <path d="M189.361 285.146L96.5421 285.146L96.5421 135.213L189.361 135.213L189.361 285.146Z" fill="white"/>
    </mask>
    <g mask="url(#mask8_711_74)">
    <path d="M189.361 275.678L185.687 275.678L185.687 280.769L189.361 280.769L189.361 275.678ZM189.361 264.151L185.687 264.151L185.687 269.241L189.361 269.241L189.361 264.151ZM119.275 257.713L135.752 257.713L135.752 252.622L119.275 252.622L119.275 257.713ZM189.361 252.622L185.687 252.622L185.687 257.713L189.361 257.713L189.361 252.622ZM189.361 241.092L185.687 241.092L185.687 246.186L189.361 246.186L189.361 241.092ZM106.309 234.654L146.726 234.654L146.726 229.564L106.309 229.564L106.309 234.654ZM189.361 229.564L185.687 229.564L185.687 234.654L189.361 234.654L189.361 229.564ZM189.361 218.038L185.687 218.038L185.687 223.125L189.361 223.125L189.361 218.038ZM128.255 211.598L169.868 211.598L169.868 206.508L128.255 206.508L128.255 211.598ZM189.361 206.508L185.687 206.508L185.687 211.598L189.361 211.598L189.361 206.508ZM189.361 194.982L185.687 194.982L185.687 200.07L189.361 200.07L189.361 194.982ZM189.361 183.451L185.687 183.451L185.687 188.542L189.361 188.542L189.361 183.451ZM139.144 177.012L139.144 171.922L94.1375 171.922L94.1375 177.012L139.144 177.012ZM189.361 171.922L185.687 171.922L185.687 177.012L189.361 177.012L189.361 171.922ZM169.868 160.394L156.585 160.394L156.585 165.484L169.868 165.484L169.868 160.394ZM189.361 160.394L185.687 160.394L185.687 165.484L189.361 165.484L189.361 160.394ZM189.361 148.866L185.687 148.866L185.687 153.956L189.361 153.956L189.361 148.866ZM179.326 135.326L177.53 135.326L177.53 285.097L179.326 285.097L179.326 135.326Z" fill="#899D9D"/>
    </g>
    </g>
    </g>
    <mask id="mask9_711_74" style="mask-type:luminance" maskUnits="userSpaceOnUse" x="157" y="183" width="89" height="31">
    <path d="M157.804 213.857L245.804 213.857L245.804 183L157.804 183L157.804 213.857Z" fill="white"/>
    </mask>
    <g mask="url(#mask9_711_74)">
    <mask id="mask10_711_74" style="mask-type:luminance" maskUnits="userSpaceOnUse" x="160" y="196" width="86" height="98">
    <path d="M245.466 293.869L160.394 293.869L160.394 196.406L245.466 196.406L245.466 293.869Z" fill="white"/>
    </mask>
    <g mask="url(#mask10_711_74)">
    <path d="M213.693 293.622L224.519 293.622L224.519 288.541L213.693 288.541L213.693 293.622ZM210.06 282.117L245.314 282.117L245.314 277.035L210.06 277.035L210.06 282.117ZM162.001 270.611L179.005 270.611L179.005 265.528L162.001 265.528L162.001 270.611ZM222.766 259.103L245.314 259.103L245.314 254.022L222.766 254.022L222.766 259.103ZM196.427 247.597L245.314 247.597L245.314 242.519L196.427 242.519L196.427 247.597ZM164.907 242.519L116.022 242.519L116.022 247.597L164.907 247.597L164.907 242.519ZM128.868 213.081L128.868 208L96.8467 208L96.8467 213.081L128.868 213.081ZM209.039 208L133.123 208L133.123 213.081L209.039 213.081L209.039 208ZM245.314 196.494L213.987 196.494L213.987 201.574L245.314 201.574L245.314 196.494Z" fill="#C2E9EA"/>
    </g>
    <mask id="mask11_711_74" style="mask-type:luminance" maskUnits="userSpaceOnUse" x="160" y="184" width="86" height="99">
    <path d="M245.466 282.216L160.394 282.216L160.394 184.753L245.466 184.753L245.466 282.216Z" fill="white"/>
    </mask>
    <g mask="url(#mask11_711_74)">
    <path d="M147.212 282.117L182.465 282.117L182.465 277.035L147.212 277.035L147.212 282.117ZM183.26 270.611L245.314 270.611L245.314 265.528L183.26 265.528L183.26 270.611ZM192.867 231.012L150.218 231.012L150.218 236.091L192.867 236.092L192.867 231.012ZM213.296 213.081L245.314 213.081L245.314 208L213.296 208L213.296 213.081ZM153.356 201.575L153.356 196.494L144.207 196.494L144.207 201.575L153.356 201.575ZM225.674 184.989L152.989 184.989L152.989 190.069L225.674 190.069L225.674 184.989Z" fill="#8CDCEC"/>
    </g>
    <mask id="mask12_711_74" style="mask-type:luminance" maskUnits="userSpaceOnUse" x="160" y="159" width="108" height="151">
    <path d="M267.889 309.495L160.393 309.495L160.393 159.857L267.889 159.857L267.889 309.495Z" fill="white"/>
    </mask>
    <g mask="url(#mask12_711_74)">
    <path d="M267.889 300.045L263.633 300.045L263.633 305.127L267.889 305.127L267.889 300.045ZM267.889 288.541L263.633 288.541L263.633 293.622L267.889 293.622L267.889 288.541ZM186.721 282.116L205.803 282.116L205.803 277.035L186.721 277.035L186.721 282.116ZM267.889 277.035L263.633 277.035L263.633 282.116L267.889 282.116L267.889 277.035ZM267.889 265.527L263.633 265.527L263.633 270.611L267.889 270.611L267.889 265.527ZM171.704 259.103L218.512 259.103L218.512 254.022L171.704 254.022L171.704 259.103ZM267.889 254.022L263.633 254.022L263.633 259.103L267.889 259.103L267.889 254.022ZM267.889 242.519L263.633 242.519L263.633 247.597L267.889 247.597L267.889 242.519ZM197.12 236.091L245.313 236.091L245.313 231.012L197.12 231.012L197.12 236.091ZM267.889 231.012L263.633 231.012L263.633 236.091L267.889 236.091L267.889 231.012ZM267.889 219.508L263.633 219.508L263.633 224.586L267.889 224.586L267.889 219.508ZM267.889 208L263.633 208L263.633 213.081L267.889 213.081L267.889 208ZM209.731 201.574L209.731 196.494L157.608 196.494L157.608 201.574L209.731 201.574ZM267.889 196.494L263.633 196.494L263.633 201.574L267.889 201.574L267.889 196.494ZM245.313 184.989L229.93 184.989L229.93 190.069L245.313 190.069L245.313 184.989ZM267.889 184.989L263.633 184.989L263.633 190.069L267.889 190.069L267.889 184.989ZM267.889 173.483L263.633 173.483L263.633 178.564L267.889 178.564L267.889 173.483ZM256.267 159.97L254.187 159.97L254.187 309.446L256.267 309.446L256.267 159.97Z" fill="#899D9D"/>
    </g>
    <mask id="mask13_711_74" style="mask-type:luminance" maskUnits="userSpaceOnUse" x="160" y="159" width="91" height="149">
    <path d="M250.568 307.641L160.393 307.641L160.393 159.557L250.568 159.557L250.568 307.641Z" fill="white"/>
    </mask>
    <g mask="url(#mask13_711_74)">
    <path d="M228.773 293.622L250.424 293.622L250.424 288.541L228.773 288.541L228.773 293.622ZM157.746 270.611L157.746 265.527L131.27 265.527L131.27 270.611L157.746 270.611ZM192.174 242.519L169.162 242.519L169.162 247.597L192.174 247.597L192.174 242.519ZM250.424 219.508L226.694 219.508L226.694 224.586L250.424 224.586L250.424 219.508ZM235.241 178.564L250.424 178.564L250.424 173.483L235.241 173.483L235.241 178.564ZM236.954 297.714C236.775 297.714 236.599 297.792 236.464 297.954L230.097 305.553C229.827 305.875 229.827 306.402 230.097 306.722C230.367 307.047 230.807 307.047 231.079 306.722L237.444 299.125C237.714 298.801 237.714 298.277 237.444 297.954C237.308 297.792 237.131 297.714 236.954 297.714ZM242.242 297.502C242.107 297.339 241.93 297.258 241.751 297.258C241.576 297.258 241.397 297.339 241.261 297.502C240.989 297.824 240.989 298.348 241.26 298.672L244.334 302.339L241.261 306.006C240.992 306.331 240.992 306.854 241.261 307.177C241.532 307.5 241.971 307.5 242.242 307.177L245.806 302.925C246.076 302.602 246.076 302.079 245.806 301.754L242.242 297.502ZM225.11 307.177C225.38 307.5 225.82 307.5 226.089 307.177C226.359 306.854 226.359 306.328 226.089 306.004L226.089 306.01L223.017 302.342L226.089 298.672C226.359 298.35 226.359 297.824 226.089 297.499C225.953 297.337 225.776 297.258 225.6 297.258C225.422 297.258 225.244 297.337 225.11 297.499L221.546 301.754C221.414 301.911 221.343 302.118 221.343 302.339C221.343 302.562 221.414 302.769 221.546 302.927L225.11 307.177ZM225.107 169.476C225.38 169.801 225.82 169.801 226.089 169.476C226.359 169.154 226.359 168.628 226.089 168.306L223.017 164.639L226.089 160.972C226.361 160.65 226.361 160.124 226.089 159.8C225.953 159.639 225.778 159.557 225.6 159.557C225.422 159.557 225.244 159.639 225.107 159.8L221.546 164.054C221.414 164.21 221.343 164.42 221.343 164.639C221.343 164.859 221.414 165.072 221.546 165.224L225.107 169.476ZM241.26 169.476C241.533 169.8 241.971 169.8 242.242 169.476L242.242 169.478L245.806 165.224C246.076 164.902 246.076 164.377 245.806 164.054L242.242 159.8C242.107 159.64 241.929 159.56 241.751 159.56C241.573 159.56 241.397 159.639 241.26 159.799C240.989 160.124 240.989 160.65 241.26 160.972L244.335 164.639L241.26 168.306C240.989 168.629 240.989 169.154 241.26 169.476ZM231.079 169.024L237.444 161.425C237.714 161.103 237.714 160.577 237.444 160.253C237.308 160.092 237.131 160.012 236.954 160.012C236.775 160.012 236.599 160.092 236.463 160.253L230.097 167.853C229.827 168.178 229.827 168.7 230.097 169.024C230.366 169.347 230.808 169.347 231.079 169.024Z" fill="#7AB6C9"/>
    </g>
    </g>
    <path d="M205.212 226.726C207.747 226.726 209.657 226.676 210.943 226.576C212.228 226.476 213.069 226.306 213.466 226.069C213.646 225.94 213.773 225.694 213.847 225.329C213.919 224.965 213.954 224.289 213.954 223.302L213.954 220.4C213.954 216.126 213.882 213.431 213.737 212.317C213.592 211.203 213.33 210.528 212.95 210.292C212.661 210.127 212.208 209.935 211.593 209.715C210.454 209.35 209.883 208.903 209.883 208.372C209.883 207.697 210.386 207.205 211.39 206.894C212.395 206.584 214.046 206.429 216.345 206.429C218.626 206.429 220.264 206.579 221.26 206.879C222.256 207.181 222.752 207.679 222.752 208.372C222.752 208.903 222.232 209.341 221.192 209.688C220.151 210.034 219.557 210.309 219.412 210.511C219.122 210.875 218.919 212.208 218.801 214.509C218.684 216.81 218.626 221.019 218.626 227.138C218.626 233.199 218.684 237.372 218.801 239.655C218.919 241.938 219.122 243.262 219.412 243.627C219.557 243.827 220.151 244.1 221.192 244.447C222.232 244.795 222.752 245.224 222.752 245.736C222.752 246.448 222.246 246.964 221.231 247.283C220.217 247.603 218.588 247.763 216.345 247.763C214.1 247.763 212.462 247.603 211.432 247.283C210.4 246.964 209.883 246.448 209.883 245.736C209.883 245.243 210.435 244.814 211.539 244.45C212.19 244.248 212.661 244.064 212.95 243.9C213.33 243.682 213.592 242.955 213.737 241.722C213.882 240.491 213.954 237.811 213.954 233.684L213.954 232.779C213.954 231.994 213.919 231.447 213.847 231.136C213.773 230.826 213.646 230.607 213.466 230.478C213.049 230.26 212.167 230.105 210.819 230.013C209.471 229.922 206.923 229.877 203.175 229.877C199.918 229.877 197.575 229.922 196.145 230.013C194.714 230.105 193.799 230.26 193.4 230.478C193.202 230.588 193.067 230.794 192.995 231.094C192.922 231.396 192.885 231.958 192.885 232.779L192.885 234.534C192.885 238.294 192.958 240.741 193.102 241.873C193.248 243.006 193.51 243.682 193.891 243.9C194.161 244.064 194.623 244.248 195.276 244.45C196.379 244.814 196.931 245.243 196.931 245.736C196.931 246.448 196.429 246.964 195.425 247.283C194.42 247.603 192.796 247.763 190.55 247.763C188.306 247.763 186.677 247.603 185.664 247.283C184.65 246.964 184.143 246.448 184.143 245.736C184.143 245.224 184.654 244.795 185.676 244.447C186.699 244.1 187.283 243.827 187.427 243.627C187.735 243.244 187.952 241.833 188.079 239.394C188.206 236.957 188.27 232.871 188.27 227.138C188.27 221.44 188.206 217.34 188.079 214.837C187.952 212.335 187.754 210.893 187.483 210.511C187.321 210.309 186.723 210.034 185.691 209.688C184.659 209.341 184.143 208.903 184.143 208.372C184.143 207.679 184.641 207.181 185.637 206.879C186.632 206.579 188.27 206.429 190.55 206.429C192.831 206.429 194.465 206.579 195.451 206.879C196.438 207.181 196.931 207.679 196.931 208.372C196.931 208.903 196.371 209.35 195.249 209.715C194.614 209.935 194.162 210.127 193.891 210.292C193.528 210.528 193.279 211.221 193.144 212.371C193.007 213.522 192.939 215.687 192.939 218.865L192.939 224.26C192.939 225.045 193.007 225.547 193.144 225.766C193.279 225.985 193.528 226.16 193.891 226.288C194.288 226.434 195.456 226.543 197.393 226.615C199.33 226.689 201.937 226.726 205.212 226.726Z" fill="#11283B"/>
    </g>
    <defs>
    <clipPath id="clip0_711_74">
    <rect x="246.429" y="271" width="87.4286" height="88" rx="20" transform="rotate(-180 246.429 271)" fill="white"/>
    </clipPath>
    </defs>
</svg>